<svg width="313" height="24" viewBox="0 0 313 24" fill="none" xmlns="http://www.w3.org/2000/svg">
<path d="M17.7154 0.524662H0.308594V22.7604H7.58614V17.2467H17.7124C23.2558 17.2467 26.6323 14.1193 26.6323 8.8842C26.6323 3.64911 23.2558 0.521694 17.7124 0.521694L17.7154 0.524662ZM15.9812 11.1491H7.58906V6.65809H15.9812C18.0563 6.65809 19.0464 7.06125 19.0464 8.88731C19.0464 10.7134 18.0563 11.1491 15.9812 11.1491Z" fill="#0D382F"/>
<path d="M47.7058 0.524878L39.4382 17.8368L35.4511 9.49212H27.7852L34.2357 22.7636H44.611L55.4814 0.524878H47.7058Z" fill="#0D382F"/>
<path d="M62.8836 0.524831L51.4856 22.7606H59.2286L61.2117 18.6401H73.8163L75.7668 22.7606H83.5394L72.174 0.524831H62.8836ZM63.69 13.4079L67.4992 5.44853L71.3084 13.4079H63.69Z" fill="#0D382F"/>
<path d="M108.161 15.7617L96.796 0.524831H86.0175V22.7636H93.2951V7.49407L104.663 22.7636H115.442V0.524831H108.161V15.7617Z" fill="#0D382F"/>
<path d="M145.771 13.811C145.4 15.7616 142.735 17.2497 138.896 17.2497C134.53 17.2497 131.711 14.9879 131.711 11.6441C131.711 8.30025 134.53 6.10069 138.896 6.10069C142.738 6.10069 145.4 7.58584 145.771 9.50676H153.514C152.927 3.80923 147.134 0 138.896 0C129.977 0 124.122 4.58293 124.122 11.6441C124.122 18.7052 129.977 23.383 138.896 23.383C147.134 23.383 152.927 19.5738 153.514 13.814H145.771V13.811Z" fill="#0D382F"/>
<path d="M164.603 0.524831L153.205 22.7606H160.948L162.932 18.6401H175.536L177.487 22.7606H185.259L173.894 0.524831H164.603ZM165.41 13.408L169.219 5.44866L173.028 13.408H165.41Z" fill="#0D382F"/>
<path d="M209.881 15.7617L198.516 0.524831H187.738V22.7636H195.015V7.49407L206.384 22.7636H217.162V0.524831H209.881V15.7617Z" fill="#0D382F"/>
<path d="M231.035 0.524831L219.637 22.7606H227.38L229.363 18.6401H241.968L243.918 22.7606H251.691L240.326 0.524831H231.035ZM231.842 13.408L235.651 5.44866L239.46 13.408H231.842Z" fill="#0D382F"/>
<path d="M270.058 0.524831H254.169V22.7606H270.058C276.5 22.7606 281.178 18.0532 281.178 11.6116C281.178 5.17001 276.5 0.524831 270.058 0.524831ZM267.118 16.6303H261.45V6.65812H267.118C271.514 6.65812 273.651 8.30038 273.651 11.6146C273.651 14.9287 271.514 16.6333 267.118 16.6333V16.6303Z" fill="#0D382F"/>
<path d="M301.558 0.524831H292.267L280.869 22.7606H288.612L290.595 18.6401H303.2L305.151 22.7606H312.923L301.558 0.524831ZM293.071 13.408L296.88 5.44866L300.689 13.408H293.071Z" fill="#0D382F"/>
</svg>
